<?xml version="1.0" encoding="UTF-8" standalone="no"?>
<!-- Created with Inkscape (http://www.inkscape.org/) -->

<svg
   xmlns:dc="http://purl.org/dc/elements/1.1/"
   xmlns:cc="http://creativecommons.org/ns#"
   xmlns:rdf="http://www.w3.org/1999/02/22-rdf-syntax-ns#"
   xmlns:svg="http://www.w3.org/2000/svg"
   xmlns="http://www.w3.org/2000/svg"
   xmlns:xlink="http://www.w3.org/1999/xlink"
   xmlns:sodipodi="http://sodipodi.sourceforge.net/DTD/sodipodi-0.dtd"
   xmlns:inkscape="http://www.inkscape.org/namespaces/inkscape"
   width="24"
   height="40"
   id="svg2"
   version="1.1"
   inkscape:version="0.48.4 r9939"
   sodipodi:docname="soldier-A.svg">
  <defs
     id="defs4">
    <linearGradient
       id="linearGradient3916">
      <stop
         style="stop-color:#5b3419;stop-opacity:1;"
         offset="0"
         id="stop3918" />
      <stop
         style="stop-color:#f4e3d7;stop-opacity:1;"
         offset="1"
         id="stop3920" />
    </linearGradient>
    <linearGradient
       inkscape:collect="always"
       xlink:href="#linearGradient3916"
       id="linearGradient3922"
       x1="9.8493977"
       y1="1022.3533"
       x2="9.8493977"
       y2="1023.8014"
       gradientUnits="userSpaceOnUse" />
  </defs>
  <sodipodi:namedview
     id="base"
     pagecolor="#ffffff"
     bordercolor="#666666"
     borderopacity="1.0"
     inkscape:pageopacity="0.0"
     inkscape:pageshadow="2"
     inkscape:zoom="11.313709"
     inkscape:cx="8.3283698"
     inkscape:cy="13.345202"
     inkscape:document-units="px"
     inkscape:current-layer="layer1"
     showgrid="false"
     inkscape:window-width="1920"
     inkscape:window-height="1017"
     inkscape:window-x="-8"
     inkscape:window-y="-8"
     inkscape:window-maximized="1" />
  <metadata
     id="metadata7">
    <rdf:RDF>
      <cc:Work
         rdf:about="">
        <dc:format>image/svg+xml</dc:format>
        <dc:type
           rdf:resource="http://purl.org/dc/dcmitype/StillImage" />
        <dc:title></dc:title>
      </cc:Work>
    </rdf:RDF>
  </metadata>
  <g
     inkscape:label="Layer 1"
     inkscape:groupmode="layer"
     id="layer1"
     transform="translate(0,-1012.3622)">
    <rect
       transform="scale(-1,1)"
       y="1049.9559"
       x="-23.21875"
       height="3"
       width="10.53125"
       id="rect3948"
       style="fill:#000000;fill-opacity:1;stroke:none" />
    <rect
       transform="scale(-1,1)"
       y="1046.1122"
       x="-14.875"
       height="4.71875"
       width="1.75"
       id="rect3950"
       style="fill:#000000;fill-opacity:1;stroke:none" />
    <rect
       style="fill:#000000;fill-opacity:1;stroke:none"
       id="rect3944"
       width="10.53125"
       height="3"
       x="0.65625"
       y="37.65625"
       transform="translate(0,1012.3622)" />
    <rect
       style="fill:#000000;fill-opacity:1;stroke:none"
       id="rect3946"
       width="1.75"
       height="4.71875"
       x="9"
       y="33.8125"
       transform="translate(0,1012.3622)" />
    <rect
       y="1022.3623"
       x="0"
       height="8.0240965"
       width="24"
       id="rect2987"
       style="fill:url(#linearGradient3922);fill-opacity:1;stroke:none" />
    <rect
       style="fill:#0066ff;fill-opacity:1;stroke:none"
       id="rect2985"
       width="24"
       height="9.951808"
       x="0"
       y="1012.3623" />
    <path
       style="fill:none;stroke:#000000;stroke-width:1px;stroke-linecap:butt;stroke-linejoin:miter;stroke-opacity:1"
       d="m 8.5783133,1028.7477 c 2.2480187,-2.04 3.5521137,-0.283 5.2530117,-0.4819 1.468349,-0.1716 4.86747,-0.9156 4.86747,-0.9156"
       id="path2989"
       inkscape:connector-curvature="0"
       sodipodi:nodetypes="csc" />
    <rect
       style="fill:#ffffff;fill-opacity:1;stroke:none"
       id="rect2991"
       width="4.1445785"
       height="3.9518073"
       x="302.55472"
       y="977.86621"
       transform="matrix(0.95594161,0.29355687,-0.29355687,0.95594161,0,0)"
       ry="0.60000002" />
    <path
       style="fill:none;stroke:#000000;stroke-width:0.333;stroke-linecap:butt;stroke-linejoin:miter;stroke-miterlimit:4;stroke-opacity:1;stroke-dasharray:none"
       d="m 1.3012048,12.192771 c 2.1773007,0 4.8876725,1.415689 4.8876725,1.415689"
       id="path2993"
       inkscape:connector-curvature="0"
       transform="translate(0,1012.3622)"
       sodipodi:nodetypes="cc" />
    <path
       style="fill:none;stroke:#000000;stroke-width:0.333;stroke-linecap:butt;stroke-linejoin:miter;stroke-miterlimit:4;stroke-opacity:1;stroke-dasharray:none"
       d="m 0.91492096,1025.8671 c 1.83712314,0.9638 4.88660934,1.4187 4.88767254,1.4157"
       id="path2993-1"
       inkscape:connector-curvature="0"
       sodipodi:nodetypes="cc" />
    <path
       style="fill:none;stroke:#000000;stroke-width:0.333;stroke-linecap:butt;stroke-linejoin:miter;stroke-miterlimit:4;stroke-opacity:1;stroke-dasharray:none"
       d="m 3.0804355,1028.6513 c 1.735359,-1.591 2.0813425,-4.661 2.0813425,-4.661"
       id="path2993-7"
       inkscape:connector-curvature="0"
       sodipodi:nodetypes="cc" />
    <path
       sodipodi:nodetypes="cc"
       inkscape:connector-curvature="0"
       id="path3799"
       d="m 3.0804355,1028.6513 c 1.735359,-1.591 2.0813425,-4.661 2.0813425,-4.661"
       style="fill:none;stroke:#000000;stroke-width:0.333;stroke-linecap:butt;stroke-linejoin:miter;stroke-miterlimit:4;stroke-opacity:1;stroke-dasharray:none" />
    <path
       style="fill:none;stroke:#000000;stroke-width:0.333;stroke-linecap:butt;stroke-linejoin:miter;stroke-miterlimit:4;stroke-opacity:1;stroke-dasharray:none"
       d="m 1.8209015,1028.2093 c 0.2633987,-1.1498 1.0945329,-4.2647 2.3023133,-4.5505"
       id="path2993-4"
       inkscape:connector-curvature="0"
       sodipodi:nodetypes="cc" />
    <rect
       style="fill:#0044aa;fill-opacity:1;stroke:none"
       id="rect3808"
       width="23.99324"
       height="17.187807"
       x="0"
       y="1030.2225" />
    <path
       sodipodi:type="arc"
       style="fill:#ffffff;fill-opacity:1;stroke:none"
       id="path3914"
       sodipodi:cx="12.153614"
       sodipodi:cy="5.0753012"
       sodipodi:rx="2.8915663"
       sodipodi:ry="2.8915663"
       d="m 15.04518,5.0753012 a 2.8915663,2.8915663 0 1 1 -5.7831322,0 2.8915663,2.8915663 0 1 1 5.7831322,0 z"
       transform="matrix(1.0375,0,0,0.99997708,-0.60937456,1012.3624)" />
    <path
       sodipodi:type="arc"
       style="fill:#ffffff;fill-opacity:1;stroke:none"
       id="path3932"
       sodipodi:cx="8.4262047"
       sodipodi:cy="12.191265"
       sodipodi:rx="1.3554217"
       sodipodi:ry="1.3554217"
       d="m 9.7816263,12.191265 a 1.3554217,1.3554217 0 1 1 -2.7108433,0 1.3554217,1.3554217 0 1 1 2.7108433,0 z"
       transform="translate(0,1012.3622)" />
    <path
       transform="matrix(0.74166666,0,0,0.74166666,12.037462,1015.0937)"
       d="m 9.7816263,12.191265 a 1.3554217,1.3554217 0 1 1 -2.7108433,0 1.3554217,1.3554217 0 1 1 2.7108433,0 z"
       sodipodi:ry="1.3554217"
       sodipodi:rx="1.3554217"
       sodipodi:cy="12.191265"
       sodipodi:cx="8.4262047"
       id="path3934"
       style="fill:#ffffff;fill-opacity:1;stroke:none"
       sodipodi:type="arc" />
    <path
       sodipodi:type="arc"
       style="fill:#2a7fff;fill-opacity:1;stroke:none"
       id="path3936"
       sodipodi:cx="8.505271"
       sodipodi:cy="12.473644"
       sodipodi:rx="0.68900603"
       sodipodi:ry="0.68900603"
       d="m 9.194277,12.473644 a 0.68900603,0.68900603 0 1 1 -1.3780121,0 0.68900603,0.68900603 0 1 1 1.3780121,0 z"
       transform="matrix(1.147541,0,0,1.147541,-1.868762,1010.3648)" />
    <path
       transform="matrix(0.85245904,0,0,0.85245904,0.6409901,1014.0455)"
       d="m 9.194277,12.473644 a 0.68900603,0.68900603 0 1 1 -1.3780121,0 0.68900603,0.68900603 0 1 1 1.3780121,0 z"
       sodipodi:ry="0.68900603"
       sodipodi:rx="0.68900603"
       sodipodi:cy="12.473644"
       sodipodi:cx="8.505271"
       id="path3938"
       style="fill:#000000;fill-opacity:1;stroke:none"
       sodipodi:type="arc" />
    <path
       transform="matrix(0.95081969,0,0,0.95081969,10.445491,1012.1276)"
       d="m 9.194277,12.473644 a 0.68900603,0.68900603 0 1 1 -1.3780121,0 0.68900603,0.68900603 0 1 1 1.3780121,0 z"
       sodipodi:ry="0.68900603"
       sodipodi:rx="0.68900603"
       sodipodi:cy="12.473644"
       sodipodi:cx="8.505271"
       id="path3940"
       style="fill:#2a7fff;fill-opacity:1;stroke:none"
       sodipodi:type="arc" />
    <path
       sodipodi:type="arc"
       style="fill:#000000;fill-opacity:1;stroke:none"
       id="path3942"
       sodipodi:cx="8.505271"
       sodipodi:cy="12.473644"
       sodipodi:rx="0.68900603"
       sodipodi:ry="0.68900603"
       d="m 9.194277,12.473644 a 0.68900603,0.68900603 0 1 1 -1.3780121,0 0.68900603,0.68900603 0 1 1 1.3780121,0 z"
       transform="matrix(0.70632321,0,0,0.70632321,12.525001,1015.1773)" />
    <text
       xml:space="preserve"
       style="font-size:5.43070841px;font-style:normal;font-variant:normal;font-weight:normal;font-stretch:normal;line-height:125%;letter-spacing:0px;word-spacing:0px;fill:#000000;fill-opacity:1;stroke:none;font-family:Comic Sans MS;-inkscape-font-specification:Comic Sans MS"
       x="10.252201"
       y="1019.3156"
       id="text3952"
       sodipodi:linespacing="125%"><tspan
         sodipodi:role="line"
         id="tspan3954"
         x="10.252201"
         y="1019.3156">B</tspan></text>
    <path
       style="fill:#80b3ff;fill-opacity:1;stroke:none"
       d="M 4.65625 17.875 C 4.6192505 17.99772 4.59375 18.115704 4.59375 18.25 C 4.59375 18.966244 5.1587557 19.53125 5.875 19.53125 C 6.5912443 19.53125 7.1875 18.966244 7.1875 18.25 C 7.1875 18.115704 7.1637848 17.99772 7.125 17.875 L 4.65625 17.875 z M 12.65625 17.875 C 12.61925 17.99772 12.59375 18.115704 12.59375 18.25 C 12.59375 18.966244 13.158756 19.53125 13.875 19.53125 C 14.591244 19.53125 15.1875 18.966244 15.1875 18.25 C 15.1875 18.115704 15.163785 17.99772 15.125 17.875 L 12.65625 17.875 z M 20.65625 17.875 C 20.61925 17.99772 20.59375 18.115704 20.59375 18.25 C 20.59375 18.966244 21.158756 19.53125 21.875 19.53125 C 22.591244 19.53125 23.1875 18.966244 23.1875 18.25 C 23.1875 18.115704 23.163785 17.99772 23.125 17.875 L 20.65625 17.875 z M 3.3125 19.28125 C 2.5789968 19.28125 1.96875 19.891497 1.96875 20.625 C 1.96875 21.358503 2.5789968 21.9375 3.3125 21.9375 C 4.0460032 21.9375 4.625 21.358503 4.625 20.625 C 4.625 19.891497 4.0460032 19.28125 3.3125 19.28125 z M 11.3125 19.28125 C 10.578997 19.28125 9.96875 19.891497 9.96875 20.625 C 9.96875 21.358503 10.578997 21.9375 11.3125 21.9375 C 12.046003 21.9375 12.625 21.358503 12.625 20.625 C 12.625 19.891497 12.046003 19.28125 11.3125 19.28125 z M 19.3125 19.28125 C 18.578997 19.28125 17.96875 19.891497 17.96875 20.625 C 17.96875 21.358503 18.578997 21.9375 19.3125 21.9375 C 20.046003 21.9375 20.625 21.358503 20.625 20.625 C 20.625 19.891497 20.046003 19.28125 19.3125 19.28125 z M 6.96875 19.84375 C 5.8814394 19.84375 5 20.725189 5 21.8125 C 5 22.899811 5.8814394 23.78125 6.96875 23.78125 C 8.0560606 23.78125 8.9375 22.899811 8.9375 21.8125 C 8.9375 20.725189 8.0560606 19.84375 6.96875 19.84375 z M 14.96875 19.84375 C 13.881439 19.84375 13 20.725189 13 21.8125 C 13 22.899811 13.881439 23.78125 14.96875 23.78125 C 16.056061 23.78125 16.9375 22.899811 16.9375 21.8125 C 16.9375 20.725189 16.056061 19.84375 14.96875 19.84375 z M 22.96875 19.84375 C 21.881439 19.84375 21 20.725189 21 21.8125 C 21 22.899811 21.881439 23.78125 22.96875 23.78125 C 23.350508 23.78125 23.698239 23.656826 24 23.46875 L 24 20.15625 C 23.698239 19.968174 23.350508 19.84375 22.96875 19.84375 z M 0 20.15625 L 0 23.46875 C 0.55770569 23.121154 0.9375 22.518053 0.9375 21.8125 C 0.9375 21.106947 0.55770569 20.503846 0 20.15625 z M 2.59375 22.46875 C 1.7135462 22.46875 1 23.182296 1 24.0625 C 1 24.942704 1.7135462 25.65625 2.59375 25.65625 C 3.4739538 25.65625 4.1875 24.942704 4.1875 24.0625 C 4.1875 23.182296 3.4739538 22.46875 2.59375 22.46875 z M 10.59375 22.46875 C 9.7135462 22.46875 9 23.182296 9 24.0625 C 9 24.942704 9.7135462 25.65625 10.59375 25.65625 C 11.473954 25.65625 12.1875 24.942704 12.1875 24.0625 C 12.1875 23.182296 11.473954 22.46875 10.59375 22.46875 z M 18.59375 22.46875 C 17.713546 22.46875 17 23.182296 17 24.0625 C 17 24.942704 17.713546 25.65625 18.59375 25.65625 C 19.473954 25.65625 20.1875 24.942704 20.1875 24.0625 C 20.1875 23.182296 19.473954 22.46875 18.59375 22.46875 z M 0.375 24.125 C 0.23486841 24.125 0.11384539 24.179454 0 24.25 L 0 25.46875 C 0.11384539 25.534413 0.23486841 25.59375 0.375 25.59375 C 0.78058411 25.59375 1.09375 25.280584 1.09375 24.875 C 1.09375 24.469416 0.78058411 24.125 0.375 24.125 z M 8.375 24.125 C 7.9694159 24.125 7.625 24.469416 7.625 24.875 C 7.625 25.280584 7.9694159 25.59375 8.375 25.59375 C 8.7805841 25.59375 9.09375 25.280584 9.09375 24.875 C 9.09375 24.469416 8.7805841 24.125 8.375 24.125 z M 16.375 24.125 C 15.969416 24.125 15.625 24.469416 15.625 24.875 C 15.625 25.280584 15.969416 25.59375 16.375 25.59375 C 16.780584 25.59375 17.09375 25.280584 17.09375 24.875 C 17.09375 24.469416 16.780584 24.125 16.375 24.125 z M 24 24.25 C 23.784342 24.383637 23.625 24.609548 23.625 24.875 C 23.625 25.140452 23.784342 25.344364 24 25.46875 L 24 24.25 z M 5.875 24.9375 C 5.1587557 24.9375 4.59375 25.533756 4.59375 26.25 C 4.59375 26.966244 5.1587557 27.53125 5.875 27.53125 C 6.5912443 27.53125 7.1875 26.966244 7.1875 26.25 C 7.1875 25.533756 6.5912443 24.9375 5.875 24.9375 z M 13.875 24.9375 C 13.158756 24.9375 12.59375 25.533756 12.59375 26.25 C 12.59375 26.966244 13.158756 27.53125 13.875 27.53125 C 14.591244 27.53125 15.1875 26.966244 15.1875 26.25 C 15.1875 25.533756 14.591244 24.9375 13.875 24.9375 z M 21.875 24.9375 C 21.158756 24.9375 20.59375 25.533756 20.59375 26.25 C 20.59375 26.966244 21.158756 27.53125 21.875 27.53125 C 22.591244 27.53125 23.1875 26.966244 23.1875 26.25 C 23.1875 25.533756 22.591244 24.9375 21.875 24.9375 z M 3.3125 27.28125 C 2.5789968 27.28125 1.96875 27.891497 1.96875 28.625 C 1.96875 29.358503 2.5789968 29.9375 3.3125 29.9375 C 4.0460032 29.9375 4.625 29.358503 4.625 28.625 C 4.625 27.891497 4.0460032 27.28125 3.3125 27.28125 z M 11.3125 27.28125 C 10.578997 27.28125 9.96875 27.891497 9.96875 28.625 C 9.96875 29.358503 10.578997 29.9375 11.3125 29.9375 C 12.046003 29.9375 12.625 29.358503 12.625 28.625 C 12.625 27.891497 12.046003 27.28125 11.3125 27.28125 z M 19.3125 27.28125 C 18.578997 27.28125 17.96875 27.891497 17.96875 28.625 C 17.96875 29.358503 18.578997 29.9375 19.3125 29.9375 C 20.046003 29.9375 20.625 29.358503 20.625 28.625 C 20.625 27.891497 20.046003 27.28125 19.3125 27.28125 z M 6.96875 27.84375 C 5.8814394 27.84375 5 28.725189 5 29.8125 C 5 30.899811 5.8814394 31.78125 6.96875 31.78125 C 8.0560606 31.78125 8.9375 30.899811 8.9375 29.8125 C 8.9375 28.725189 8.0560606 27.84375 6.96875 27.84375 z M 14.96875 27.84375 C 13.881439 27.84375 13 28.725189 13 29.8125 C 13 30.899811 13.881439 31.78125 14.96875 31.78125 C 16.056061 31.78125 16.9375 30.899811 16.9375 29.8125 C 16.9375 28.725189 16.056061 27.84375 14.96875 27.84375 z M 22.96875 27.84375 C 21.881439 27.84375 21 28.725189 21 29.8125 C 21 30.899811 21.881439 31.78125 22.96875 31.78125 C 23.350508 31.78125 23.698239 31.656826 24 31.46875 L 24 28.15625 C 23.698239 27.968174 23.350508 27.84375 22.96875 27.84375 z M 0 28.15625 L 0 31.46875 C 0.55770569 31.121154 0.9375 30.518053 0.9375 29.8125 C 0.9375 29.106947 0.55770569 28.503846 0 28.15625 z M 2.59375 30.46875 C 1.7135462 30.46875 1 31.182296 1 32.0625 C 1 32.942704 1.7135462 33.65625 2.59375 33.65625 C 3.4739538 33.65625 4.1875 32.942704 4.1875 32.0625 C 4.1875 31.182296 3.4739538 30.46875 2.59375 30.46875 z M 10.59375 30.46875 C 9.7135462 30.46875 9 31.182296 9 32.0625 C 9 32.942704 9.7135462 33.65625 10.59375 33.65625 C 11.473954 33.65625 12.1875 32.942704 12.1875 32.0625 C 12.1875 31.182296 11.473954 30.46875 10.59375 30.46875 z M 18.59375 30.46875 C 17.713546 30.46875 17 31.182296 17 32.0625 C 17 32.942704 17.713546 33.65625 18.59375 33.65625 C 19.473954 33.65625 20.1875 32.942704 20.1875 32.0625 C 20.1875 31.182296 19.473954 30.46875 18.59375 30.46875 z M 0.375 32.125 C 0.23486841 32.125 0.11384539 32.179454 0 32.25 L 0 33.46875 C 0.11384539 33.534413 0.23486841 33.59375 0.375 33.59375 C 0.78058411 33.59375 1.09375 33.280584 1.09375 32.875 C 1.09375 32.469416 0.78058411 32.125 0.375 32.125 z M 8.375 32.125 C 7.9694159 32.125 7.625 32.469416 7.625 32.875 C 7.625 33.280584 7.9694159 33.59375 8.375 33.59375 C 8.7805841 33.59375 9.09375 33.280584 9.09375 32.875 C 9.09375 32.469416 8.7805841 32.125 8.375 32.125 z M 16.375 32.125 C 15.969416 32.125 15.625 32.469416 15.625 32.875 C 15.625 33.280584 15.969416 33.59375 16.375 33.59375 C 16.780584 33.59375 17.09375 33.280584 17.09375 32.875 C 17.09375 32.469416 16.780584 32.125 16.375 32.125 z M 24 32.25 C 23.784342 32.383637 23.625 32.609548 23.625 32.875 C 23.625 33.140452 23.784342 33.344364 24 33.46875 L 24 32.25 z M 5.875 32.9375 C 5.1587557 32.9375 4.59375 33.533756 4.59375 34.25 C 4.59375 34.567296 4.7204586 34.840537 4.90625 35.0625 L 6.875 35.0625 C 7.0676233 34.840537 7.1875 34.567296 7.1875 34.25 C 7.1875 33.533756 6.5912443 32.9375 5.875 32.9375 z M 13.875 32.9375 C 13.158756 32.9375 12.59375 33.533756 12.59375 34.25 C 12.59375 34.567296 12.720459 34.840537 12.90625 35.0625 L 14.875 35.0625 C 15.067623 34.840537 15.1875 34.567296 15.1875 34.25 C 15.1875 33.533756 14.591244 32.9375 13.875 32.9375 z M 21.875 32.9375 C 21.158756 32.9375 20.59375 33.533756 20.59375 34.25 C 20.59375 34.567296 20.720459 34.840537 20.90625 35.0625 L 22.875 35.0625 C 23.067623 34.840537 23.1875 34.567296 23.1875 34.25 C 23.1875 33.533756 22.591244 32.9375 21.875 32.9375 z "
       transform="translate(0,1012.3622)"
       id="path3956" />
  </g>
</svg>
