<?xml version="1.0" encoding="UTF-8" standalone="no"?>
<!-- Created with Inkscape (http://www.inkscape.org/) -->

<svg
   xmlns:dc="http://purl.org/dc/elements/1.1/"
   xmlns:cc="http://creativecommons.org/ns#"
   xmlns:rdf="http://www.w3.org/1999/02/22-rdf-syntax-ns#"
   xmlns:svg="http://www.w3.org/2000/svg"
   xmlns="http://www.w3.org/2000/svg"
   xmlns:xlink="http://www.w3.org/1999/xlink"
   xmlns:sodipodi="http://sodipodi.sourceforge.net/DTD/sodipodi-0.dtd"
   xmlns:inkscape="http://www.inkscape.org/namespaces/inkscape"
   width="32"
   height="32"
   id="svg3795"
   version="1.1"
   inkscape:version="0.48.4 r9939"
   sodipodi:docname="Nowy dokument 5">
  <defs
     id="defs3797">
    <linearGradient
       id="linearGradient4355">
      <stop
         style="stop-color:#ffbb8c;stop-opacity:1;"
         offset="0"
         id="stop4357" />
      <stop
         style="stop-color:#e15d00;stop-opacity:1;"
         offset="1"
         id="stop4359" />
    </linearGradient>
    <linearGradient
       id="linearGradient4321">
      <stop
         style="stop-color:#484848;stop-opacity:1;"
         offset="0"
         id="stop4323" />
      <stop
         style="stop-color:#ffffff;stop-opacity:1;"
         offset="1"
         id="stop4325" />
    </linearGradient>
    <linearGradient
       inkscape:collect="always"
       xlink:href="#linearGradient4321"
       id="linearGradient4327"
       x1="11.162048"
       y1="15.768674"
       x2="21.339157"
       y2="15.768674"
       gradientUnits="userSpaceOnUse"
       gradientTransform="matrix(3.2551045,0,0,2.4909489,-36.897409,997.08318)" />
    <linearGradient
       inkscape:collect="always"
       xlink:href="#linearGradient4321"
       id="linearGradient4341"
       x1="1.4901161e-008"
       y1="1036.3622"
       x2="32"
       y2="1036.3622"
       gradientUnits="userSpaceOnUse"
       gradientTransform="matrix(1.015873,0,0,1.015873,-0.25396825,-1036.8124)" />
    <linearGradient
       inkscape:collect="always"
       xlink:href="#linearGradient4321"
       id="linearGradient4350"
       gradientUnits="userSpaceOnUse"
       gradientTransform="matrix(1.015873,0,0,1.015873,-0.25396825,-1036.8124)"
       x1="1.4901161e-008"
       y1="1036.3622"
       x2="32"
       y2="1036.3622" />
    <linearGradient
       inkscape:collect="always"
       xlink:href="#linearGradient4355"
       id="linearGradient4361"
       x1="11.035475"
       y1="1.8389561"
       x2="-16.082737"
       y2="-5.1610436"
       gradientUnits="userSpaceOnUse" />
    <linearGradient
       inkscape:collect="always"
       xlink:href="#linearGradient4355"
       id="linearGradient4388"
       gradientUnits="userSpaceOnUse"
       x1="11.035475"
       y1="1.8389561"
       x2="-16.082737"
       y2="-5.1610436" />
    <linearGradient
       inkscape:collect="always"
       xlink:href="#linearGradient4321"
       id="linearGradient4396"
       gradientUnits="userSpaceOnUse"
       gradientTransform="matrix(1.015873,0,0,1.015873,-0.25396825,-1036.8124)"
       x1="1.4901161e-008"
       y1="1036.3622"
       x2="32"
       y2="1036.3622" />
    <linearGradient
       inkscape:collect="always"
       xlink:href="#linearGradient4355"
       id="linearGradient4398"
       gradientUnits="userSpaceOnUse"
       x1="11.035475"
       y1="1.8389561"
       x2="-16.082737"
       y2="-5.1610436" />
  </defs>
  <sodipodi:namedview
     id="base"
     pagecolor="#ffffff"
     bordercolor="#666666"
     borderopacity="1.0"
     inkscape:pageopacity="0.0"
     inkscape:pageshadow="2"
     inkscape:zoom="22.627417"
     inkscape:cx="16.652399"
     inkscape:cy="15.153991"
     inkscape:document-units="px"
     inkscape:current-layer="layer1"
     showgrid="false"
     inkscape:window-width="1920"
     inkscape:window-height="1017"
     inkscape:window-x="-8"
     inkscape:window-y="-8"
     inkscape:window-maximized="1" />
  <metadata
     id="metadata3800">
    <rdf:RDF>
      <cc:Work
         rdf:about="">
        <dc:format>image/svg+xml</dc:format>
        <dc:type
           rdf:resource="http://purl.org/dc/dcmitype/StillImage" />
        <dc:title></dc:title>
      </cc:Work>
    </rdf:RDF>
  </metadata>
  <g
     inkscape:label="Layer 1"
     inkscape:groupmode="layer"
     id="layer1"
     transform="translate(0,-1020.3622)">
    <g
       id="g4391"
       transform="matrix(0.21335156,-0.36953574,0.36953574,0.21335156,-367.214,819.92921)">
      <path
         id="rect3803"
         transform="translate(0,1020.3622)"
         d="M 16,-4 C 7.163444,-4 0,-2.2091389 0,0 l 0,32 c 0,2.209139 7.163444,4 16,4 8.836556,0 16,-1.790861 16,-4 L 32,0 c 0,-2.2091389 -7.163444,-4 -16,-4 z"
         style="fill:url(#linearGradient4396);fill-opacity:1;stroke:none"
         inkscape:connector-curvature="0" />
      <path
         transform="matrix(2,0,0,1.235119,-4.8578319,1011.6955)"
         d="m 18.428916,7.0168676 c 0,1.7886042 -3.581722,3.2385544 -8,3.2385544 -4.418278,0 -8,-1.4499502 -8,-3.2385544 0,-1.7886041 3.581722,-3.2385542 8,-3.2385542 4.418278,0 8,1.4499501 8,3.2385542 z"
         sodipodi:ry="3.2385542"
         sodipodi:rx="8"
         sodipodi:cy="7.0168676"
         sodipodi:cx="10.428916"
         id="path4343"
         style="fill:#000000;fill-opacity:1;stroke:none"
         sodipodi:type="arc" />
      <path
         id="path4353"
         transform="translate(0,1020.3622)"
         d="m -5.8125,-11.3125 c -6.376388,0.202577 -13.162308,3.213647 -16.875,7.625 -9.080505,10.7892917 10.791544,-2.4295319 10.34375,3.28125 -0.08292,1.05754746 -2.02331,6.5509001 1.669371,4.6539784 2.2215767,-1.1412187 2.1333636,-2.3152532 6.0289233,-4.42466432 C -2.3846677,-1.4011326 2.142217,-1.1913501 3.625,1.6875 5.1461704,2.132753 7.2428161,2.4920262 9.71875,2.71875 7.9695895,-2.2395508 5.2622046,-8.250897 2.3125,-9.71875 c -2.40798075,-1.198276 -5.226642,-1.685831 -8.125,-1.59375 z"
         style="fill:url(#linearGradient4398);fill-opacity:1;stroke:none"
         inkscape:connector-curvature="0"
         sodipodi:nodetypes="sssssccss" />
    </g>
  </g>
</svg>
